<svg xmlns="http://www.w3.org/2000/svg" width="900" height="430" viewBox="0 0 900 430" role="img" font-family="sans-serif"><title>1271年 定国号，1279年 统一</title><rect width="900" height="430" fill="#fffaf0"/><rect x="30" y="14" width="405" height="392" rx="24" fill="#f5ecd8"/><g transform="translate(127.5 32) scale(2.1)"><g fill="none" stroke="#355e58" stroke-width="3.2" stroke-linecap="round" stroke-linejoin="round"><rect x="23" y="8" width="54" height="84" rx="12" fill="#c5ba9d"/><path d="M35 30H65M35 43H65M35 56H65M35 69H57" fill="none"/></g></g><text x="232.5" y="288" text-anchor="middle" font-size="29" fill="#274d47" font-weight="650"><tspan x="232.5" dy="0">1271年 定国号</tspan></text><g stroke="#739d91" fill="none" stroke-width="3"><path d="M438 202.1L462 202.1" /><path d="M455 196.1l7 6-7 6" fill="none"/></g><rect x="465" y="14" width="405" height="392" rx="24" fill="#edf4ee"/><g transform="translate(562.5 32) scale(2.1)"><g fill="none" stroke="#355e58" stroke-width="3.2" stroke-linecap="round" stroke-linejoin="round"><path d="M10 22L35 13L63 24L90 14V79L64 89L35 77L10 89Z" fill="#d3e5d7"/><path d="M35 13V77M63 24V89" fill="none"/><path d="M19 67Q38 24 52 60T83 33" fill="none"/></g></g><text x="667.5" y="288" text-anchor="middle" font-size="29" fill="#274d47" font-weight="650"><tspan x="667.5" dy="0">1279年 统一</tspan></text></svg>