<svg xmlns="http://www.w3.org/2000/svg" width="900" height="430" viewBox="0 0 900 430" role="img" font-family="sans-serif"><title>带来手艺，互相学习</title><rect width="900" height="430" fill="#fffaf0"/><rect x="30" y="14" width="405" height="392" rx="24" fill="#f5ecd8"/><g transform="translate(127.5 32) scale(2.1)"><g fill="none" stroke="#355e58" stroke-width="3.2" stroke-linecap="round" stroke-linejoin="round"><path d="M19 16L34 18L46 36L39 44L25 35Z" fill="#7d9f9c"/><path d="M39 40L79 85L88 76L46 35Z" fill="#d5aa75"/><path d="M72 13L61 35L22 81L15 74L52 28L54 12L62 18L64 8Z" fill="#9bbdb5"/></g></g><text x="232.5" y="288" text-anchor="middle" font-size="29" fill="#274d47" font-weight="650"><tspan x="232.5" dy="0">带来手艺</tspan></text><g stroke="#739d91" fill="none" stroke-width="3"><path d="M438 202.1L462 202.1" /><path d="M455 196.1l7 6-7 6" fill="none"/></g><rect x="465" y="14" width="405" height="392" rx="24" fill="#edf4ee"/><g transform="translate(562.5 32) scale(2.1)"><g fill="none" stroke="#355e58" stroke-width="3.2" stroke-linecap="round" stroke-linejoin="round"><g transform="translate(-5 8) scale(0.68)"><circle cx="50" cy="22" r="12" fill="#eeb48f"/><path d="M28 84V60Q28 41 50 41Q72 41 72 60V84Z" fill="#72b9b0"/><path d="M30 57L13 70M70 57L87 70" fill="none"/></g><g transform="translate(39 8) scale(0.68)"><circle cx="50" cy="22" r="12" fill="#eeb48f"/><path d="M28 84V60Q28 41 50 41Q72 41 72 60V84Z" fill="#72b9b0"/><path d="M30 57L13 70M70 57L87 70" fill="none"/></g></g></g><text x="667.5" y="288" text-anchor="middle" font-size="29" fill="#274d47" font-weight="650"><tspan x="667.5" dy="0">互相学习</tspan></text></svg>