<svg xmlns="http://www.w3.org/2000/svg" width="420" height="242" viewBox="0 0 420 242" role="img" font-family="sans-serif"><title>山脚，桥</title><rect width="420" height="242" fill="#fffaf0"/><rect x="14" y="9" width="190" height="224" rx="17" fill="#f5ecd8"/><g transform="translate(50 24) scale(1.18)"><g fill="none" stroke="#355e58" stroke-width="3.2" stroke-linecap="round" stroke-linejoin="round"><path d="M3 88L36 17L61 64L78 30L98 88Z" fill="#a9bca0"/><path d="M25 40L35 47L43 34" fill="none"/></g></g><text x="109" y="168" text-anchor="middle" font-size="18" fill="#274d47" font-weight="650"><tspan x="109" dy="0">山脚</tspan></text><g stroke="#739d91" fill="none" stroke-width="3"><path d="M207 113.74L213 113.74" /><path d="M206 107.74l7 6-7 6" fill="none"/></g><rect x="216" y="9" width="190" height="224" rx="17" fill="#edf4ee"/><g transform="translate(252 24) scale(1.18)"><g fill="none" stroke="#355e58" stroke-width="3.2" stroke-linecap="round" stroke-linejoin="round"><path d="M3 82Q50-1 97 82H80Q50 26 20 82Z" fill="#c7aa81"/><path d="M10 59L18 69M24 40L33 53M44 29L48 48M65 33L61 50M81 46L72 59" fill="none"/></g></g><text x="311" y="168" text-anchor="middle" font-size="18" fill="#274d47" font-weight="650"><tspan x="311" dy="0">桥</tspan></text></svg>