<svg xmlns="http://www.w3.org/2000/svg" width="900" height="430" viewBox="0 0 900 430" role="img" font-family="sans-serif"><title>北魏 386—534年，唐 618—907年</title><rect width="900" height="430" fill="#fffaf0"/><rect x="30" y="14" width="405" height="392" rx="24" fill="#f5ecd8"/><g transform="translate(127.5 32) scale(2.1)"><g fill="none" stroke="#355e58" stroke-width="3.2" stroke-linecap="round" stroke-linejoin="round"><path d="M18 60Q26 39 54 44L73 34L69 23L84 23L91 36L76 51L72 72H29Z" fill="#d7a567"/><path d="M29 68L24 91M62 69L62 91M18 61L7 50M77 24L73 10M74 17L64 11M83 25L89 8M87 17L98 13" fill="none"/><circle cx="83" cy="32" r="1.6" fill="#244f4b"/></g></g><text x="232.5" y="288" text-anchor="middle" font-size="29" fill="#274d47" font-weight="650"><tspan x="232.5" dy="0">北魏 386—534年</tspan></text><g stroke="#739d91" fill="none" stroke-width="3"><path d="M438 202.1L462 202.1" /><path d="M455 196.1l7 6-7 6" fill="none"/></g><rect x="465" y="14" width="405" height="392" rx="24" fill="#edf4ee"/><g transform="translate(562.5 32) scale(2.1)"><g fill="none" stroke="#355e58" stroke-width="3.2" stroke-linecap="round" stroke-linejoin="round"><rect x="21" y="34" width="58" height="54" rx="1" fill="#d6a78b"/><path d="M4 56Q29 52 50 19Q71 52 96 56L87 66H13Z" fill="#d3a548"/><path d="M17 53L32 58M32 37L44 58M50 22V59M68 37L56 58M83 53L68 58" fill="none"/><rect x="20" y="66" width="60" height="22" rx="1" fill="#bd6f55"/></g></g><text x="667.5" y="288" text-anchor="middle" font-size="29" fill="#274d47" font-weight="650"><tspan x="667.5" dy="0">唐 618—907年</tspan></text></svg>