<svg xmlns="http://www.w3.org/2000/svg" width="900" height="430" viewBox="0 0 900 430" role="img" font-family="sans-serif"><title>工具，观察，合作</title><rect width="900" height="430" fill="#fffaf0"/><rect x="30" y="14" width="260" height="392" rx="24" fill="#f5ecd8"/><g transform="translate(55 32) scale(2.1)"><g fill="none" stroke="#355e58" stroke-width="3.2" stroke-linecap="round" stroke-linejoin="round"><circle cx="50" cy="50" r="39" fill="#d2e8e1"/><path d="M50 13L62 50L50 87L38 50Z" fill="#cc8667"/><path d="M50 13L50 87" /><circle cx="50" cy="50" r="5" fill="#fffaf0"/></g></g><text x="160" y="288" text-anchor="middle" font-size="29" fill="#274d47" font-weight="650"><tspan x="160" dy="0">工具</tspan></text><g stroke="#739d91" fill="none" stroke-width="3"><path d="M293 202.1L317 202.1" /><path d="M310 196.1l7 6-7 6" fill="none"/></g><rect x="320" y="14" width="260" height="392" rx="24" fill="#edf4ee"/><g transform="translate(345 32) scale(2.1)"><g fill="none" stroke="#355e58" stroke-width="3.2" stroke-linecap="round" stroke-linejoin="round"><path d="M4 50Q48-5 96 50Q50 103 4 50Z" fill="#fffaf0"/><circle cx="50" cy="50" r="17" fill="#6eaaa0"/></g></g><text x="450" y="288" text-anchor="middle" font-size="29" fill="#274d47" font-weight="650"><tspan x="450" dy="0">观察</tspan></text><g stroke="#739d91" fill="none" stroke-width="3"><path d="M583 202.1L607 202.1" /><path d="M600 196.1l7 6-7 6" fill="none"/></g><rect x="610" y="14" width="260" height="392" rx="24" fill="#f5ecd8"/><g transform="translate(635 32) scale(2.1)"><g fill="none" stroke="#355e58" stroke-width="3.2" stroke-linecap="round" stroke-linejoin="round"><g transform="translate(-5 8) scale(0.68)"><circle cx="50" cy="22" r="12" fill="#eeb48f"/><path d="M28 84V60Q28 41 50 41Q72 41 72 60V84Z" fill="#72b9b0"/><path d="M30 57L13 70M70 57L87 70" fill="none"/></g><g transform="translate(39 8) scale(0.68)"><circle cx="50" cy="22" r="12" fill="#eeb48f"/><path d="M28 84V60Q28 41 50 41Q72 41 72 60V84Z" fill="#72b9b0"/><path d="M30 57L13 70M70 57L87 70" fill="none"/></g></g></g><text x="740" y="288" text-anchor="middle" font-size="29" fill="#274d47" font-weight="650"><tspan x="740" dy="0">合作</tspan></text></svg>