<svg xmlns="http://www.w3.org/2000/svg" width="900" height="430" viewBox="0 0 900 430" role="img" font-family="sans-serif"><title>战国 先筑墙，秦 前221年后</title><rect width="900" height="430" fill="#fffaf0"/><rect x="30" y="14" width="405" height="392" rx="24" fill="#f5ecd8"/><g transform="translate(127.5 32) scale(2.1)"><g fill="none" stroke="#355e58" stroke-width="3.2" stroke-linecap="round" stroke-linejoin="round"><rect x="9" y="35" width="82" height="51" rx="1" fill="#c9b7a0"/><path d="M9 35V20H24V35H39V20H54V35H69V20H84V35H91M10 53H90M10 70H90M28 35V52M66 35V52M43 53V70M24 71V85M68 71V85" fill="none"/></g></g><text x="232.5" y="288" text-anchor="middle" font-size="29" fill="#274d47" font-weight="650"><tspan x="232.5" dy="0">战国 先筑墙</tspan></text><g stroke="#739d91" fill="none" stroke-width="3"><path d="M438 202.1L462 202.1" /><path d="M455 196.1l7 6-7 6" fill="none"/></g><rect x="465" y="14" width="405" height="392" rx="24" fill="#edf4ee"/><g transform="translate(562.5 32) scale(2.1)"><g fill="none" stroke="#355e58" stroke-width="3.2" stroke-linecap="round" stroke-linejoin="round"><path d="M3 82Q50-1 97 82H80Q50 26 20 82Z" fill="#c7aa81"/><path d="M10 59L18 69M24 40L33 53M44 29L48 48M65 33L61 50M81 46L72 59" fill="none"/></g></g><text x="667.5" y="288" text-anchor="middle" font-size="29" fill="#274d47" font-weight="650"><tspan x="667.5" dy="0">秦 前221年后</tspan></text></svg>