<svg xmlns="http://www.w3.org/2000/svg" width="900" height="430" viewBox="0 0 900 430" role="img" font-family="sans-serif"><title>研究圆，直边逼近，方法接续</title><rect width="900" height="430" fill="#fffaf0"/><rect x="30" y="14" width="260" height="392" rx="24" fill="#f5ecd8"/><g transform="translate(55 32) scale(2.1)"><g fill="none" stroke="#355e58" stroke-width="3.2" stroke-linecap="round" stroke-linejoin="round"><circle cx="50" cy="50" r="37" fill="#98c7b7"/></g></g><text x="160" y="288" text-anchor="middle" font-size="29" fill="#274d47" font-weight="650"><tspan x="160" dy="0">研究圆</tspan></text><g stroke="#739d91" fill="none" stroke-width="3"><path d="M293 202.1L317 202.1" /><path d="M310 196.1l7 6-7 6" fill="none"/></g><rect x="320" y="14" width="260" height="392" rx="24" fill="#edf4ee"/><g transform="translate(345 32) scale(2.1)"><g fill="none" stroke="#355e58" stroke-width="3.2" stroke-linecap="round" stroke-linejoin="round"><circle cx="50" cy="50" r="38" fill="#f8eed2"/><polygon points="50.00,16.00 79.44,33.00 79.44,67.00 50.00,84.00 20.56,67.00 20.56,33.00" fill="#88beb2"/></g></g><text x="450" y="288" text-anchor="middle" font-size="29" fill="#274d47" font-weight="650"><tspan x="450" dy="0">直边逼近</tspan></text><g stroke="#739d91" fill="none" stroke-width="3"><path d="M583 202.1L607 202.1" /><path d="M600 196.1l7 6-7 6" fill="none"/></g><rect x="610" y="14" width="260" height="392" rx="24" fill="#f5ecd8"/><g transform="translate(635 32) scale(2.1)"><g fill="none" stroke="#355e58" stroke-width="3.2" stroke-linecap="round" stroke-linejoin="round"><path d="M50 22Q30 12 10 22V81Q30 71 50 81Q70 71 90 81V22Q70 12 50 22Z" fill="#fff4d6"/><path d="M50 22L50 81" /><path d="M20 34L39 33M20 46L39 45M61 33L80 34M61 45L80 46M20 58L39 57M61 57L80 58" fill="none"/></g></g><text x="740" y="288" text-anchor="middle" font-size="29" fill="#274d47" font-weight="650"><tspan x="740" dy="0">方法接续</tspan></text></svg>