<svg xmlns="http://www.w3.org/2000/svg" width="420" height="242" viewBox="0 0 420 242" role="img" font-family="sans-serif"><title>比较，核对</title><rect width="420" height="242" fill="#fffaf0"/><rect x="14" y="9" width="190" height="224" rx="17" fill="#f5ecd8"/><g transform="translate(50 24) scale(1.18)"><g fill="none" stroke="#355e58" stroke-width="3.2" stroke-linecap="round" stroke-linejoin="round"><path d="M4 50Q48-5 96 50Q50 103 4 50Z" fill="#fffaf0"/><circle cx="50" cy="50" r="17" fill="#6eaaa0"/></g></g><text x="109" y="168" text-anchor="middle" font-size="18" fill="#274d47" font-weight="650"><tspan x="109" dy="0">比较</tspan></text><g stroke="#739d91" fill="none" stroke-width="3"><path d="M207 113.74L213 113.74" /><path d="M206 107.74l7 6-7 6" fill="none"/></g><rect x="216" y="9" width="190" height="224" rx="17" fill="#edf4ee"/><g transform="translate(252 24) scale(1.18)"><g fill="none" stroke="#355e58" stroke-width="3.2" stroke-linecap="round" stroke-linejoin="round"><path d="M50 22Q30 12 10 22V81Q30 71 50 81Q70 71 90 81V22Q70 12 50 22Z" fill="#fff4d6"/><path d="M50 22L50 81" /><path d="M20 34L39 33M20 46L39 45M61 33L80 34M61 45L80 46M20 58L39 57M61 57L80 58" fill="none"/></g></g><text x="311" y="168" text-anchor="middle" font-size="18" fill="#274d47" font-weight="650"><tspan x="311" dy="0">核对</tspan></text></svg>