<svg xmlns="http://www.w3.org/2000/svg" width="420" height="242" viewBox="0 0 420 242" role="img" font-family="sans-serif"><title>唐，北魏</title><rect width="420" height="242" fill="#fffaf0"/><rect x="14" y="9" width="190" height="224" rx="17" fill="#f5ecd8"/><g transform="translate(50 24) scale(1.18)"><g fill="none" stroke="#355e58" stroke-width="3.2" stroke-linecap="round" stroke-linejoin="round"><rect x="21" y="34" width="58" height="54" rx="1" fill="#d6a78b"/><path d="M4 56Q29 52 50 19Q71 52 96 56L87 66H13Z" fill="#d3a548"/><path d="M17 53L32 58M32 37L44 58M50 22V59M68 37L56 58M83 53L68 58" fill="none"/><rect x="20" y="66" width="60" height="22" rx="1" fill="#bd6f55"/></g></g><text x="109" y="168" text-anchor="middle" font-size="18" fill="#274d47" font-weight="650"><tspan x="109" dy="0">唐</tspan></text><g stroke="#739d91" fill="none" stroke-width="3"><path d="M207 113.74L213 113.74" /><path d="M206 107.74l7 6-7 6" fill="none"/></g><rect x="216" y="9" width="190" height="224" rx="17" fill="#edf4ee"/><g transform="translate(252 24) scale(1.18)"><g fill="none" stroke="#355e58" stroke-width="3.2" stroke-linecap="round" stroke-linejoin="round"><path d="M18 60Q26 39 54 44L73 34L69 23L84 23L91 36L76 51L72 72H29Z" fill="#d7a567"/><path d="M29 68L24 91M62 69L62 91M18 61L7 50M77 24L73 10M74 17L64 11M83 25L89 8M87 17L98 13" fill="none"/><circle cx="83" cy="32" r="1.6" fill="#244f4b"/></g></g><text x="311" y="168" text-anchor="middle" font-size="18" fill="#274d47" font-weight="650"><tspan x="311" dy="0">北魏</tspan></text></svg>